HIERARCHY
ROOT Hips
{
	OFFSET 0.000000 0.000000 0.000000
	CHANNELS 6 Xposition Yposition Zposition Xrotation Yrotation Zrotation
	JOINT LeftUpLeg_virtual
	{
		OFFSET 0.000000 0.000000 0.000000
		CHANNELS 3 Xrotation Yrotation Zrotation
		JOINT LeftUpLeg
		{
			OFFSET 10.205400 -3.823500 0.155100
			CHANNELS 3 Xrotation Yrotation Zrotation
			JOINT LeftLeg
			{
				OFFSET 0.708757 -12.982077 0.567790
				CHANNELS 3 Xrotation Yrotation Zrotation
				JOINT LeftFoot
				{
					OFFSET -0.708756 -10.717838 -2.184338
					CHANNELS 3 Xrotation Yrotation Zrotation
					JOINT LeftToeBase
					{
						OFFSET 0.108149 -7.191104 7.560241
						CHANNELS 3 Xrotation Yrotation Zrotation
						JOINT LeftToe_End
						{
							OFFSET 0.070230 0.081724 4.490308
							CHANNELS 3 Xrotation Yrotation Zrotation
							End Site
							{
								OFFSET 0 0 0
							}
						}
					}
				}
			}
		}
	}
	JOINT RightUpLeg_virtual
	{
		OFFSET 0.000000 0.000000 0.000000
		CHANNELS 3 Xrotation Yrotation Zrotation
		JOINT RightUpLeg
		{
			OFFSET -10.205400 -3.823500 0.005500
			CHANNELS 3 Xrotation Yrotation Zrotation
			JOINT RightLeg
			{
				OFFSET -0.708756 -12.982134 0.610632
				CHANNELS 3 Xrotation Yrotation Zrotation
				JOINT RightFoot
				{
					OFFSET 0.708754 -10.717769 -1.945823
					CHANNELS 3 Xrotation Yrotation Zrotation
					JOINT RightToeBase
					{
						OFFSET -0.108140 -7.191069 7.372968
						CHANNELS 3 Xrotation Yrotation Zrotation
						JOINT RightToe_End
						{
							OFFSET -0.070227 0.081735 4.479403
							CHANNELS 3 Xrotation Yrotation Zrotation
							End Site
							{
								OFFSET 0 0 0
							}
						}
					}
				}
			}
		}
	}
	JOINT Spine_virtual
	{
		OFFSET 0.000000 0.000000 0.000000
		CHANNELS 3 Xrotation Yrotation Zrotation
		JOINT Spine
		{
			OFFSET 0.000000 6.876099 0.125700
			CHANNELS 3 Xrotation Yrotation Zrotation
			JOINT Spine1
			{
				OFFSET 0.000000 5.730043 0.104720
				CHANNELS 3 Xrotation Yrotation Zrotation
				JOINT Spine1_split
				{
					OFFSET 0.000000 5.730043 0.104720
					CHANNELS 3 Xrotation Yrotation Zrotation
					JOINT Spine2
					{
						OFFSET 0.000000 5.730043 0.104720
						CHANNELS 3 Xrotation Yrotation Zrotation
						JOINT Neck_virtual
						{
							OFFSET 0.000000 0.000000 0.000000
							CHANNELS 3 Xrotation Yrotation Zrotation
							JOINT Neck
							{
								OFFSET 0.000000 10.314075 0.188496
								CHANNELS 3 Xrotation Yrotation Zrotation
								JOINT Head
								{
									OFFSET 0.000000 7.643700 -2.377400
									CHANNELS 3 Xrotation Yrotation Zrotation
									JOINT HeadTop_End
									{
										OFFSET 0.000000 43.788605 -13.619600
										CHANNELS 3 Xrotation Yrotation Zrotation
										End Site
										{
											OFFSET 0 0 0
										}
									}
								}
							}
						}
						JOINT LeftShoulder_virtual
						{
							OFFSET 0.000000 0.000000 0.000000
							CHANNELS 3 Xrotation Yrotation Zrotation
							JOINT LeftShoulder
							{
								OFFSET 2.196100 4.412489 0.087492
								CHANNELS 3 Xrotation Yrotation Zrotation
								JOINT LeftShoulder_split
								{
									OFFSET 2.196100 4.412489 0.087492
									CHANNELS 3 Xrotation Yrotation Zrotation
									JOINT LeftArm
									{
										OFFSET 8.771219 -2.981674 -0.026999
										CHANNELS 3 Xrotation Yrotation Zrotation
										JOINT LeftForeArm
										{
											OFFSET 8.512804 0.000000 -0.000000
											CHANNELS 3 Xrotation Yrotation Zrotation
											JOINT LeftHand
											{
												OFFSET 18.484802 0.000000 -0.000000
												CHANNELS 3 Xrotation Yrotation Zrotation
												End Site
												{
													OFFSET 0 0 0
												}
											}
										}
									}
								}
							}
						}
						JOINT RightShoulder_virtual
						{
							OFFSET 0.000000 0.000000 0.000000
							CHANNELS 3 Xrotation Yrotation Zrotation
							JOINT RightShoulder
							{
								OFFSET -2.196100 4.412496 0.070690
								CHANNELS 3 Xrotation Yrotation Zrotation
								JOINT RightShoulder_split
								{
									OFFSET -2.196100 4.412496 0.070690
									CHANNELS 3 Xrotation Yrotation Zrotation
									JOINT RightArm
									{
										OFFSET -8.771282 -2.981682 -0.094208
										CHANNELS 3 Xrotation Yrotation Zrotation
										JOINT RightForeArm
										{
											OFFSET -8.494598 0.000000 0.000000
											CHANNELS 3 Xrotation Yrotation Zrotation
											JOINT RightHand
											{
												OFFSET -18.483803 0.000000 0.000001
												CHANNELS 3 Xrotation Yrotation Zrotation
												End Site
												{
													OFFSET 0 0 0
												}
											}
										}
									}
								}
							}
						}
					}
				}
			}
		}
	}
}
MOTION
Frames: 8
Frame Time: 0.03333333
0.095505 33.447777 -2.901546 0.000000 0.000000 0.000000 2.709592 2.329443 -0.308629 -17.455156 7.276724 8.820314 34.036902 -2.040004 0.167122 -21.231506 2.167775 -5.299039 -1.002199 0.044165 0.915005 0.000000 0.000000 0.000000 2.875046 2.680208 -0.591721 -4.916646 -6.922534 -6.463382 25.195255 -6.729687 6.079184 -21.499262 -16.992257 0.225745 -0.783454 -0.031491 -0.337342 0.000000 0.000000 0.000000 3.003329 0.653272 -1.220485 19.161288 -2.355113 -0.373812 -0.435884 -0.358727 1.201556 0.639945 0.588864 0.104440 0.000000 0.000000 0.000000 0.401393 -0.241055 0.555513 15.932834 2.165316 0.689419 11.870488 2.302344 1.815023 0.000000 0.000000 0.000000 0.252713 -0.040533 0.228612 11.107949 -38.391226 -0.493259 0.403321 -1.203942 -3.307540 16.525492 15.519385 -48.243942 -0.204583 -33.380111 0.991402 0.000000 0.000000 0.000000 -0.189191 -0.058582 0.862685 1.724883 -2.576242 6.583446 -0.754451 2.297163 -0.354715 2.470665 19.085282 36.026588 0.310568 16.665199 1.612358 0.000000 0.000000 0.000000 
0.110486 33.480461 -2.832731 0.000000 0.000000 0.000000 2.541306 2.356067 -0.219672 -17.054586 7.448513 8.772073 33.740813 -2.079690 0.069437 -21.130385 2.157592 -5.189480 -0.989600 0.054867 0.935281 0.000000 0.000000 0.000000 2.742112 2.714413 -0.507218 -4.559964 -6.851977 -6.572340 25.005230 -6.625521 6.035366 -21.376324 -17.010327 0.218697 -0.727869 -0.041485 -0.339692 0.000000 0.000000 0.000000 2.820738 0.856942 -1.105207 18.563824 -2.382668 -0.336939 -0.435240 -0.361143 1.108966 0.638533 0.592796 0.122639 0.000000 0.000000 0.000000 0.411736 -0.237911 0.454348 15.908132 1.492722 0.756350 11.839144 -0.480729 3.039504 0.000000 0.000000 0.000000 0.289931 -0.039382 0.131735 10.785301 -38.157490 -0.575298 0.374153 -1.084570 -3.130079 18.134320 16.268409 -48.549651 -0.192204 -32.855870 0.989567 0.000000 0.000000 0.000000 -0.165820 -0.055473 0.793725 1.509957 -3.010459 6.383397 -0.530212 2.360507 -0.360785 3.986166 18.699504 35.613098 0.446671 16.677181 1.494191 0.000000 0.000000 0.000000 
0.119477 33.500916 -2.787684 0.000000 0.000000 0.000000 2.379196 2.366611 -0.164444 -16.763142 7.538329 8.707889 33.542468 -2.143603 0.030961 -21.041858 2.141484 -5.097571 -0.974803 0.067742 0.936880 0.000000 0.000000 0.000000 2.610115 2.719332 -0.450890 -4.236133 -6.753119 -6.637364 24.876464 -6.528222 6.013655 -21.301881 -17.039563 0.187751 -0.695941 -0.050520 -0.333925 0.000000 0.000000 0.000000 2.652792 1.053615 -1.010129 18.039733 -2.324760 -0.317315 -0.390329 -0.356052 1.076433 0.653746 0.577602 0.124477 0.000000 0.000000 0.000000 0.406096 -0.225976 0.408382 15.853798 0.900065 0.827428 11.741335 -2.782683 4.014770 0.000000 0.000000 0.000000 0.358447 -0.035804 0.094462 10.491351 -37.745196 -0.615608 0.384361 -0.906021 -2.989803 19.251805 16.590205 -49.063281 -0.253607 -32.355808 0.982071 0.000000 0.000000 0.000000 -0.105361 -0.043840 0.776281 1.380793 -3.355653 6.298762 -0.317622 2.469041 -0.350235 4.468586 18.478056 35.955779 0.495718 16.589445 1.418595 0.000000 0.000000 0.000000 
0.124359 33.506226 -2.761172 0.000000 0.000000 0.000000 2.211666 2.382567 -0.124846 -16.576248 7.514133 8.613670 33.463200 -2.241070 0.061712 -20.937422 2.117122 -5.048233 -0.943949 0.082745 0.915800 0.000000 0.000000 0.000000 2.458986 2.717168 -0.405651 -3.954270 -6.633396 -6.678076 24.834172 -6.454617 6.010656 -21.307351 -17.089442 0.120065 -0.681817 -0.057598 -0.325928 0.000000 0.000000 0.000000 2.487558 1.238475 -0.919821 17.615454 -2.196953 -0.316991 -0.315790 -0.348187 1.096772 0.677857 0.576015 0.067318 0.000000 0.000000 0.000000 0.372576 -0.211139 0.409783 15.792063 0.408140 0.896615 11.646893 -4.571383 4.762527 0.000000 0.000000 0.000000 0.435458 -0.034829 0.102040 10.231765 -37.248737 -0.639302 0.364328 -0.634477 -2.903464 19.830840 16.518128 -49.659287 -0.434227 -31.689988 0.941652 0.000000 0.000000 0.000000 -0.024363 -0.026053 0.801394 1.345858 -3.595873 6.371399 -0.154868 2.539364 -0.297902 3.955927 18.362808 37.061996 0.476634 16.417729 1.362627 0.000000 0.000000 0.000000 
0.125637 33.500286 -2.751204 0.000000 0.000000 0.000000 2.032165 2.416214 -0.077864 -16.441000 7.372837 8.470953 33.463959 -2.366104 0.171320 -20.813827 2.093445 -5.028678 -0.886074 0.097750 0.873295 0.000000 0.000000 0.000000 2.279785 2.744216 -0.351971 -3.705991 -6.519216 -6.724592 24.892109 -6.407488 6.020240 -21.398557 -17.169986 0.024598 -0.682061 -0.062419 -0.319091 0.000000 0.000000 0.000000 2.314749 1.423494 -0.816789 17.305886 -2.013363 -0.336689 -0.226119 -0.341017 1.151470 0.695315 0.565061 -0.024873 0.000000 0.000000 0.000000 0.306277 -0.198155 0.447301 15.735733 0.031206 0.955601 11.608397 -5.873758 5.317934 0.000000 0.000000 0.000000 0.500564 -0.036224 0.134854 10.003063 -36.749047 -0.685606 0.299263 -0.334872 -2.852264 19.900905 16.033036 -50.289115 -0.716918 -30.947085 0.863944 0.000000 0.000000 0.000000 0.058209 0.001763 0.851331 1.405920 -3.665757 6.660590 -0.006484 2.578826 -0.258406 2.626327 18.289254 38.892432 0.433265 16.116151 1.298990 0.000000 0.000000 0.000000 
0.123891 33.488739 -2.752422 0.000000 0.000000 0.000000 1.839438 2.479344 -0.005089 -16.298474 7.145578 8.277212 33.458105 -2.507731 0.338554 -20.704796 2.071739 -5.017470 -0.809923 0.110767 0.816517 0.000000 0.000000 0.000000 2.060610 2.822502 -0.271786 -3.474728 -6.448785 -6.795708 25.019676 -6.388431 6.040481 -21.538544 -17.287453 -0.068414 -0.694144 -0.065992 -0.314659 0.000000 0.000000 0.000000 2.112546 1.621617 -0.681308 17.098759 -1.790123 -0.364918 -0.136167 -0.336709 1.220746 0.700921 0.565664 -0.079656 0.000000 0.000000 0.000000 0.214951 -0.187617 0.506875 15.691067 -0.227320 1.001639 11.649859 -6.718468 5.698756 0.000000 0.000000 0.000000 0.540192 -0.039527 0.180776 9.795461 -36.288542 -0.800448 0.189497 -0.067267 -2.837981 19.488177 15.150251 -50.965581 -1.021080 -30.330937 0.768806 0.000000 0.000000 0.000000 0.134615 0.036419 0.915272 1.552753 -3.484772 7.160995 0.094083 2.498611 -0.235834 0.700358 18.174387 41.321709 0.408902 15.765434 1.185199 0.000000 0.000000 0.000000 
0.119589 33.476799 -2.763078 0.000000 0.000000 0.000000 1.621000 2.583687 0.098879 -16.102434 6.889415 8.051696 33.372082 -2.666949 0.521336 -20.597988 2.039996 -5.022476 -0.769013 0.122066 0.762542 0.000000 0.000000 0.000000 1.797188 2.953281 -0.159415 -3.243536 -6.454017 -6.897794 25.174394 -6.390521 6.063100 -21.676539 -17.449928 -0.127491 -0.721637 -0.070066 -0.312091 0.000000 0.000000 0.000000 1.861411 1.840209 -0.510386 16.970363 -1.541075 -0.390208 -0.058090 -0.333631 1.291592 0.712875 0.555578 -0.139888 0.000000 0.000000 0.000000 0.106663 -0.178173 0.580922 15.650632 -0.373786 1.037967 11.771774 -7.170755 5.929835 0.000000 0.000000 0.000000 0.550281 -0.041832 0.232905 9.604633 -35.903658 -1.002989 0.075961 0.141917 -2.815146 18.690326 13.908408 -51.738266 -1.260764 -30.002525 0.697289 0.000000 0.000000 0.000000 0.196528 0.074833 0.987715 1.767614 -3.004575 7.831636 0.102720 2.310160 -0.273338 -1.585659 18.005359 44.195285 0.445409 15.343194 0.997837 0.000000 0.000000 0.000000 
0.113816 33.467281 -2.779457 0.000000 0.000000 0.000000 1.372529 2.713958 0.225628 -15.854239 6.645039 7.822652 33.194532 -2.848944 0.687280 -20.454596 1.998387 -5.043417 -0.781873 0.129956 0.718004 0.000000 0.000000 0.000000 1.495045 3.144814 -0.026086 -2.996855 -6.545641 -7.016830 25.331633 -6.405212 6.090011 -21.778876 -17.653607 -0.141802 -0.766334 -0.074809 -0.310511 0.000000 0.000000 0.000000 1.557104 2.088348 -0.321402 16.879520 -1.278229 -0.401912 0.005094 -0.330974 1.361368 0.757054 0.520473 -0.186740 0.000000 0.000000 0.000000 -0.014977 -0.167732 0.665193 15.598506 -0.430059 1.067982 11.929150 -7.312349 6.043238 0.000000 0.000000 0.000000 0.531919 -0.041586 0.290837 9.429346 -35.585412 -1.286412 -0.045484 0.276558 -2.743816 17.549857 12.394130 -52.630600 -1.369443 -29.830752 0.668251 0.000000 0.000000 0.000000 0.239177 0.114844 1.068993 2.031171 -2.199554 8.617129 0.006088 2.082168 -0.355143 -3.984133 17.843972 47.311552 0.540118 14.831983 0.744712 0.000000 0.000000 0.000000 
